<svg width="54" height="54" viewBox="0 0 54 54" fill="none" xmlns="http://www.w3.org/2000/svg">
<path d="M3.49343 53.7088L52.4831 28.849C53.169 28.5011 53.601 27.7972 53.6016 27.0279C53.6016 27.0277 53.6016 27.0274 53.6016 27.0271C53.6016 26.2584 53.1701 25.5548 52.4847 25.2061L3.36786 0.222036C2.62745 -0.15443 1.73287 -0.0454674 1.1047 0.497984C0.476257 1.04144 0.239807 1.91123 0.506222 2.69794L8.72909 26.9972L0.506222 51.2964C0.433491 51.5113 0.39835 51.7322 0.39835 51.951C0.39835 51.9621 0.398346 51.973 0.398621 51.9842C0.41333 53.1 1.32235 53.9997 2.44167 53.9997C2.82631 54 3.18616 53.8938 3.49343 53.7088ZM12.5924 25.6654L5.98405 6.13735L44.3746 25.6654H12.5924ZM12.5722 28.3894H44.3599L5.98187 47.8643L12.5722 28.3894Z" fill="white"/>
</svg>
