<svg width="13" height="13" viewBox="0 0 13 13" fill="none" xmlns="http://www.w3.org/2000/svg">
<path d="M12.9922 4.94766C12.98 4.90541 12.9567 4.86748 12.9249 4.8381C12.893 4.80873 12.8539 4.78907 12.8118 4.78134L8.71417 4.13905L6.87953 0.136555C6.86222 0.0959131 6.83381 0.0613457 6.79776 0.0370743C6.7617 0.0128029 6.71958 -0.00012207 6.67652 -0.00012207C6.63346 -0.00012207 6.59133 0.0128029 6.55528 0.0370743C6.51922 0.0613457 6.49081 0.0959131 6.4735 0.136555L4.64083 4.13973L0.545848 4.78134C0.503291 4.78861 0.463571 4.80806 0.431214 4.83746C0.398858 4.86687 0.375168 4.90505 0.362843 4.94766C0.349657 4.9908 0.347998 5.0368 0.35804 5.08082C0.368083 5.12484 0.389456 5.16526 0.419909 5.19782L3.38538 8.31395L2.68287 12.714C2.67561 12.7584 2.68012 12.8041 2.69594 12.8461C2.71176 12.8881 2.73829 12.9249 2.77274 12.9527C2.80638 12.9796 2.84698 12.9957 2.88945 12.9989C2.93191 13.0022 2.97437 12.9924 3.0115 12.9709L6.67684 10.8939L10.3409 12.9689C10.3781 12.9901 10.4205 12.9997 10.4629 12.9965C10.5053 12.9932 10.5459 12.9773 10.5796 12.9506C10.6141 12.9229 10.6407 12.8861 10.6565 12.8441C10.6724 12.8021 10.6768 12.7564 10.6695 12.712L9.96962 8.31192L12.9351 5.19579C12.9651 5.16339 12.9863 5.12332 12.9963 5.07971C13.0063 5.0361 13.0049 4.99052 12.9922 4.94766Z" fill="#808080"/>
</svg>
